<svg id="Layer_1" data-name="Layer 1" xmlns="http://www.w3.org/2000/svg" viewBox="0 0 850.39 282.91"><defs><style>.cls-1{fill:#c9a15b;}</style></defs><path class="cls-1" d="M47.61,60.8v95.05h47a14,14,0,0,0,7.83-2c1.41-.78,1.41-1.72,3-1.72-.16,3-.63,6.58-4.38,6.58H36.34c0-2.35,3.75-3.45,3.75-7.52V60.8c0-4.07-3.75-5.17-3.75-7.52H51.53C51.53,55.63,47.61,56.73,47.61,60.8Z"/><path class="cls-1" d="M122,53.28c0,2.35-3.92,3.45-3.92,7.52v61.85c0,21,13,34.61,33.35,34.61,16.92,0,31.63-14.25,31.63-35.7V60.8c0-4.07-3.75-5.17-3.75-7.52h11.27c0,2.35-3.91,3.45-3.91,7.52V122c0,21-14.25,38.05-35.24,38.05-23.48,0-40.86-12.52-40.86-38.2V60.8c0-4.07-3.76-5.17-3.76-7.52Z"/><path class="cls-1" d="M245.53,52c11.9,0,20,2.35,27.09,6.42a5.72,5.72,0,0,1,2.81,5.17v5.63a.55.55,0,0,1-.46.16c-.79,0-1.57-1.72-2.82-3.29-4.54-6.73-17.23-11.27-26.62-11.27-22.39,0-40.56,23.64-40.56,51.2,0,27.41,18.17,51.36,40.56,51.36,9.39,0,22.08-4.54,26.62-11.27,1.25-1.57,2-3.29,2.82-3.29a.55.55,0,0,1,.46.16v5.63a5.7,5.7,0,0,1-2.81,5.17c-7.05,4.07-15.19,6.42-27.09,6.42-26.94,0-48.86-25.21-48.86-54.18S218.59,52,245.53,52Z"/><path class="cls-1" d="M298.76,53.28c0,2.35-3.91,3.45-3.91,7.52v45.1l43.06-45.73c3.29-3.29.78-4.54.78-6.89h12.68c-.47,3.6-5.32,3.29-7.51,5.48l-26.47,28,32.42,61.38c1.88,3.76,4.7,7.52,7.67,9.09.31.15.31.62.31.94a.86.86,0,0,1-.78.47h-2c-7.21-.16-8.93-.79-12.06-7L311.76,93.06l-16.91,18v40.09c0,4.07,3.91,5.17,3.91,7.52H283.57c0-2.35,3.76-3.45,3.76-7.52V60.8c0-4.07-3.76-5.17-3.76-7.52Z"/><path class="cls-1" d="M375.17,60.8v90.35c0,4.07,3.91,5.17,3.91,7.52H363.9c0-2.35,3.75-3.45,3.75-7.52V60.8c0-4.07-3.75-5.17-3.75-7.52h15.18C379.08,55.63,375.17,56.73,375.17,60.8Z"/><path class="cls-1" d="M391,151.15V60.8c0-4.07-3.76-5.17-3.76-7.52h10.49l64.2,84.25V60.8c0-4.07-3.75-5.17-3.75-7.52,3.75,0,7.36.16,11.27.16,0,2.35-3.91,3.44-3.91,7.36v90.35c0,4.07,3.91,5.17,3.91,7.52H458.16c0-2.35,3.75-3.45,3.75-7.52L394.74,63.3v87.85c0,4.07,3.76,5.17,3.76,7.52H387.22C387.22,156.32,391,155.22,391,151.15Z"/><path class="cls-1" d="M481.33,151.15V60.8c0-4.07-3.76-5.17-3.76-7.52h10.49l64.2,84.25V60.8c0-4.07-3.76-5.17-3.76-7.52,3.76,0,7.36.16,11.28.16,0,2.35-3.92,3.44-3.92,7.36v90.35c0,4.07,3.92,5.17,3.92,7.52H548.5c0-2.35,3.76-3.45,3.76-7.52L485.09,63.3v87.85c0,4.07,3.75,5.17,3.75,7.52H477.57C477.57,156.32,481.33,155.22,481.33,151.15Z"/><path class="cls-1" d="M616.3,60.8v90.35c0,4.07,3.91,5.17,3.91,7.52H605c0-2.35,3.76-3.45,3.76-7.52V60.8c0-4.07-3.76-5.17-3.76-7.52h15.19C620.21,55.63,616.3,56.73,616.3,60.8Z"/><path class="cls-1" d="M640.88,53.28c0,2.35-3.76,3.45-2.35,7l.78,2.35,34.45,87.69c11.43-30.23,24.12-59.66,35.23-90,1.73-3.6-2.5-4.7-2.5-7h12.06c0,2.35-4.39,3.92-5.17,6.11l-39,99.28h-4.86L631.64,62.21l-1.41-2.82c-.94-2-3.91-3.76-3.91-6.11Z"/><path class="cls-1" d="M722.61,53.28H738.9c.62,2.35-3,3.45-.63,7l1.41,2.35L769.9,105.9l32.26-45.57c2.66-3.6-1.26-4.7-.47-7h12.37c-.63,3.14-5.8,3.92-7.21,6.11L772.25,109v42.12c0,4.07,3.91,5.17,3.91,7.52H761c0-2.35,3.76-3.45,3.76-7.52v-39.3c-11.43-16.6-23-33-34.6-49.64l-2-2.82C726.68,57.35,723.39,56.57,722.61,53.28Z"/><path class="cls-1" d="M170,249.79,161.07,235h-3.34v14.82h-7.6v-38h14.5q6.62,0,10.1,3.24a12.14,12.14,0,0,1,1.08,15.73,11.86,11.86,0,0,1-6.93,3.88l9.48,15.19Zm-12.23-20H164q6.53,0,6.52-5.77a5.67,5.67,0,0,0-1.59-4.28,6.89,6.89,0,0,0-4.93-1.54h-6.25Z"/><path class="cls-1" d="M221.09,217.79v9.86h13.47v5.82H221.09V243.7h15.08v6.09H213.49v-38h22.68v6Z"/><path class="cls-1" d="M296.62,244.75a10.34,10.34,0,0,1-4.31,3.94,15,15,0,0,1-6.95,1.48,18,18,0,0,1-7.22-1.38,12.2,12.2,0,0,1-5.09-4,11.44,11.44,0,0,1-2.18-6H279a6.17,6.17,0,0,0,1.86,3.85,5.81,5.81,0,0,0,4.23,1.54,4.92,4.92,0,0,0,3.64-1.27,4.42,4.42,0,0,0,1.26-3.26,4.27,4.27,0,0,0-1-2.93,7.21,7.21,0,0,0-2.59-1.86c-1-.47-2.47-1-4.31-1.62a42.32,42.32,0,0,1-5.81-2.34,10.88,10.88,0,0,1-3.86-3.37,9.66,9.66,0,0,1-1.59-5.77,9.4,9.4,0,0,1,3.53-7.73q3.52-2.82,9.35-2.83,6,0,9.62,2.91a11,11,0,0,1,4.07,7.76h-8.19a5.67,5.67,0,0,0-1.73-3.36,5.35,5.35,0,0,0-3.82-1.33,5,5,0,0,0-3.4,1.11,4.5,4.5,0,0,0-.29,6,7.34,7.34,0,0,0,2.53,1.8,41.33,41.33,0,0,0,4.17,1.57,55.92,55.92,0,0,1,6,2.42,10.52,10.52,0,0,1,3.9,3.4,9.92,9.92,0,0,1,1.62,5.92A10.3,10.3,0,0,1,296.62,244.75Z"/><path class="cls-1" d="M341.45,211.75v38h-7.6v-38Z"/><path class="cls-1" d="M409.6,240.69a16.48,16.48,0,0,1-6.86,6.7,22.45,22.45,0,0,1-10.7,2.4H378.52v-38H392a22.8,22.8,0,0,1,10.7,2.35,16.24,16.24,0,0,1,6.86,6.62,22.22,22.22,0,0,1,0,20Zm-8.7-.92q3.38-3.24,3.37-9.05t-3.37-9.11q-3.36-3.23-9.51-3.23h-5.28V243h5.28Q397.54,243,400.9,239.77Z"/><path class="cls-1" d="M455.45,217.79v9.86h13.47v5.82H455.45V243.7h15.09v6.09H447.86v-38h22.68v6Z"/><path class="cls-1" d="M538.53,249.79h-7.59l-17-25.86v25.86h-7.6v-38h7.6l17,26.08V211.75h7.59Z"/><path class="cls-1" d="M604.59,215a17.29,17.29,0,0,1,6.19,10h-8a10.43,10.43,0,0,0-3.85-4.85,10.89,10.89,0,0,0-6.28-1.78,9.92,9.92,0,0,0-9.21,5.82,16.54,16.54,0,0,0,0,13.09,9.92,9.92,0,0,0,9.21,5.82,10.89,10.89,0,0,0,6.28-1.78,10.43,10.43,0,0,0,3.85-4.85h8a17.29,17.29,0,0,1-6.19,10,20.52,20.52,0,0,1-21.42,1.21,16.7,16.7,0,0,1-6.47-6.87,23.18,23.18,0,0,1,0-20.09,16.76,16.76,0,0,1,6.44-6.87A20.57,20.57,0,0,1,604.59,215Z"/><path class="cls-1" d="M654.26,217.79v9.86h13.47v5.82H654.26V243.7h15.09v6.09H646.66v-38h22.69v6Z"/></svg>